<mxfile host="app.diagrams.net" modified="2023-07-13T12:51:06.683Z" agent="Mozilla/5.0 (Windows NT 10.0; Win64; x64) AppleWebKit/537.36 (KHTML, like Gecko) Chrome/114.0.0.0 Safari/537.36" etag="_pnTRJ5--4OJqWbjAD20" version="21.6.2" type="github">
  <diagram name="Page-1" id="PZkrMHB64Fw8UDvv0arY">
    <mxGraphModel dx="753" dy="417" grid="1" gridSize="10" guides="1" tooltips="1" connect="1" arrows="1" fold="1" page="1" pageScale="1" pageWidth="850" pageHeight="1100" math="0" shadow="0">
      <root>
        <mxCell id="0" />
        <mxCell id="1" parent="0" />
      </root>
    </mxGraphModel>
  </diagram>
</mxfile>
